<?xml version="1.0" standalone="no"?>
<svg xmlns:xlink="http://www.w3.org/1999/xlink" id="wave" style="transform:rotate(0deg); transition: 0.3s" viewBox="0 0 1440 240" version="1.1" xmlns="http://www.w3.org/2000/svg"><defs><linearGradient id="sw-gradient-0" x1="0" x2="0" y1="1" y2="0"><stop stop-color="rgba(243, 106, 62, 1)" offset="0%"/><stop stop-color="rgba(255, 179, 11, 1)" offset="100%"/></linearGradient></defs><path style="transform:translate(0, 0px); opacity:1" fill="url(#sw-gradient-0)" d="M0,96L60,84C120,72,240,48,360,52C480,56,600,88,720,112C840,136,960,152,1080,148C1200,144,1320,120,1440,96C1560,72,1680,48,1800,40C1920,32,2040,40,2160,36C2280,32,2400,16,2520,20C2640,24,2760,48,2880,64C3000,80,3120,88,3240,88C3360,88,3480,80,3600,88C3720,96,3840,120,3960,116C4080,112,4200,80,4320,80C4440,80,4560,112,4680,120C4800,128,4920,112,5040,112C5160,112,5280,128,5400,144C5520,160,5640,176,5760,188C5880,200,6000,208,6120,192C6240,176,6360,136,6480,132C6600,128,6720,160,6840,168C6960,176,7080,160,7200,156C7320,152,7440,160,7560,144C7680,128,7800,88,7920,80C8040,72,8160,96,8280,104C8400,112,8520,104,8580,100L8640,96L8640,240L8580,240C8520,240,8400,240,8280,240C8160,240,8040,240,7920,240C7800,240,7680,240,7560,240C7440,240,7320,240,7200,240C7080,240,6960,240,6840,240C6720,240,6600,240,6480,240C6360,240,6240,240,6120,240C6000,240,5880,240,5760,240C5640,240,5520,240,5400,240C5280,240,5160,240,5040,240C4920,240,4800,240,4680,240C4560,240,4440,240,4320,240C4200,240,4080,240,3960,240C3840,240,3720,240,3600,240C3480,240,3360,240,3240,240C3120,240,3000,240,2880,240C2760,240,2640,240,2520,240C2400,240,2280,240,2160,240C2040,240,1920,240,1800,240C1680,240,1560,240,1440,240C1320,240,1200,240,1080,240C960,240,840,240,720,240C600,240,480,240,360,240C240,240,120,240,60,240L0,240Z"/></svg>